<svg width="122" height="56" viewBox="0 0 122 56" fill="none" xmlns="http://www.w3.org/2000/svg">
<path d="M35.7525 9.35607C36.0808 10.2365 36.251 11.3153 36.251 12.5864C36.251 13.8574 36.0808 14.9548 35.7525 15.8415C35.4182 16.7281 34.9258 17.3977 34.2813 17.8565C33.643 18.3091 32.8527 18.5385 31.9104 18.5385C30.9681 18.5385 30.1656 18.3091 29.5212 17.8565C28.8768 17.3977 28.3905 16.7281 28.0622 15.8415C27.7339 14.9548 27.5698 13.8698 27.5698 12.5864C27.5698 11.3029 27.7339 10.2365 28.0622 9.35607C28.3905 8.47564 28.8768 7.80602 29.5212 7.34721C30.1656 6.8946 30.962 6.66519 31.9104 6.66519C32.8588 6.66519 33.643 6.8946 34.2813 7.34721C34.9258 7.80602 35.4182 8.47564 35.7525 9.35607Z" fill="#FCFCFC"/>
<path d="M32.3542 22.9407C32.111 23.1887 31.7098 23.1887 31.4666 22.9407L21.7762 13.0576C21.5269 12.8034 21.5269 12.4004 21.7762 12.1461L31.4666 2.26306C31.7098 2.01506 32.111 2.01506 32.3542 2.26306L42.0447 12.1461C42.2939 12.4004 42.2939 12.8034 42.0447 13.0576L32.3542 22.9407ZM31.9104 0C25.0894 0 19.5572 5.64216 19.5572 12.605C19.5572 19.5678 25.0894 25.2037 31.9104 25.2037C38.7314 25.2037 44.2697 19.5616 44.2697 12.605C44.2697 5.64836 38.7375 0 31.9104 0Z" fill="#FCFCFC"/>
<path d="M11.8365 10.8565C11.5507 11.3525 11.1434 11.7369 10.6024 12.0097C10.0613 12.2888 9.41688 12.4252 8.65089 12.4252H6.40153V5.79717H8.65089C9.41688 5.79717 10.0613 5.92737 10.6024 6.18778C11.1434 6.44818 11.5507 6.82019 11.8365 7.31001C12.1222 7.79982 12.2681 8.39504 12.2681 9.09566C12.2681 9.79628 12.1222 10.3605 11.8365 10.8565ZM17.8489 4.60053C17.1194 3.3233 16.092 2.32507 14.7789 1.62445C13.4657 0.917626 11.9276 0.564216 10.1768 0.564216H0V24.6395H6.40153V17.4969H9.95186C11.7513 17.4969 13.3198 17.1559 14.6755 16.4739C16.0251 15.7857 17.0768 14.8184 17.8246 13.566C18.5784 12.3074 18.9554 10.8193 18.9554 9.09566C18.9554 7.37201 18.5845 5.88397 17.8489 4.60053Z" fill="#FCFCFC"/>
<path d="M56.173 24.6395L60.161 11.1975H60.3556L64.3436 24.6395H70.4959L77.4628 0.564216H70.3014L67.0732 15.4322H66.8787L63.0791 0.564216H57.4375L53.6379 15.364H53.4434L50.2153 0.564216H43.0538L50.0207 24.6395H56.173Z" fill="#FCFCFC"/>
<path d="M99.5733 19.357H78.7334V24.6271H99.5733V19.357Z" fill="#FCFCFC"/>
<path d="M99.5733 0.582817H78.7334V5.84677H99.5733V0.582817Z" fill="#FCFCFC"/>
<path d="M98.5034 9.96988H78.7334V15.2338H98.5034V9.96988Z" fill="#FCFCFC"/>
<path d="M114.097 10.4039C113.811 10.8255 113.398 11.1293 112.863 11.3277C112.322 11.5199 111.671 11.6191 110.911 11.6191H108.662V5.79717H110.911C111.671 5.79717 112.322 5.90257 112.863 6.10717C113.398 6.31178 113.811 6.62799 114.097 7.062C114.383 7.48981 114.522 8.05403 114.522 8.74225C114.522 9.43047 114.383 9.98229 114.097 10.4039ZM117.185 15.6616C118.419 15.0602 119.386 14.2108 120.085 13.101C120.839 11.9167 121.21 10.4659 121.21 8.74225C121.21 7.0186 120.845 5.57396 120.109 4.35252C119.374 3.13109 118.352 2.19486 117.033 1.54384C115.72 0.892825 114.188 0.564216 112.431 0.564216H102.26V24.6395H108.662V16.6909H110.881L115.033 24.6395H122L117.185 15.6616Z" fill="#FCFCFC"/>
<path d="M20.0983 42.5952C19.4356 41.907 18.5784 41.3056 17.5389 40.7848C16.4993 40.2701 15.253 39.8547 13.8062 39.5447L11.6541 39.0735C10.8273 38.8937 10.1525 38.6891 9.62966 38.4535C9.10684 38.2241 8.72384 37.9451 8.48674 37.6289C8.24357 37.3065 8.12198 36.9407 8.12198 36.519C8.12198 36.1222 8.23141 35.7688 8.45635 35.4588C8.68128 35.1488 9.02781 34.9008 9.50199 34.7272C9.9701 34.5536 10.572 34.4668 11.3015 34.4668C12.4505 34.4668 13.3137 34.7086 13.8852 35.1984C14.4566 35.682 14.7728 36.364 14.8275 37.2383H21.6789C21.6667 35.4898 21.2412 33.9522 20.3962 32.6377C19.5572 31.3233 18.3657 30.3065 16.8154 29.581C15.2652 28.8556 13.4292 28.4898 11.3015 28.4898C9.17371 28.4898 7.38031 28.8494 5.78144 29.5624C4.18866 30.2755 2.93632 31.2737 2.0305 32.5509C1.12468 33.8282 0.674806 35.3224 0.674806 37.0213C0.674806 39.1231 1.34353 40.7848 2.67491 42C4.01236 43.2214 5.84224 44.0833 8.15846 44.5855L10.803 45.1621C11.7817 45.3667 12.5599 45.5961 13.1374 45.8441C13.7089 46.0983 14.1284 46.3773 14.3776 46.6811C14.6329 46.9911 14.7606 47.3445 14.7606 47.7538C14.7606 48.2002 14.6269 48.5908 14.3594 48.9318C14.098 49.2728 13.7089 49.5394 13.1861 49.7316C12.6693 49.9238 12.031 50.023 11.265 50.023C10.347 50.023 9.56279 49.8804 8.90622 49.589C8.25573 49.3038 7.75115 48.876 7.39247 48.3118C7.02771 47.7476 6.82709 47.0593 6.77845 46.2409H0C0.0121587 48.4854 0.492426 50.3268 1.43472 51.7653C2.37094 53.2099 3.69623 54.2701 5.39237 54.9646C7.09458 55.6528 9.0886 56 11.3683 56C13.6481 56 15.5023 55.6776 17.089 55.0452C18.6757 54.4065 19.8976 53.4765 20.7488 52.2427C21.6059 51.0151 22.0315 49.5146 22.0315 47.7538C22.0315 46.7307 21.8734 45.7883 21.5634 44.9265C21.2533 44.0647 20.7609 43.2834 20.0983 42.5952Z" fill="#FCFCFC"/>
<path d="M39.8257 42.3286H30.7918V29.4694H23.9769V55.0886H30.7918V47.9336H39.8257V55.0886H46.6406V29.4694H39.8257V42.3286Z" fill="#FCFCFC"/>
<path d="M56.5195 29.4694L48.2273 55.0886H63.1642L61.8754 49.899H57.1153L61.0729 36.519H61.2736L66.7754 55.0886H74.1253L65.827 29.4694H56.5195Z" fill="#FCFCFC"/>
<path d="M88.3083 40.419C88.0044 40.9522 87.5667 41.3614 86.9891 41.6528C86.4177 41.9442 85.7246 42.093 84.9161 42.093H82.5208V35.0372H84.9161C85.7246 35.0372 86.4177 35.1736 86.9891 35.4526C87.5667 35.7254 88.0044 36.1284 88.3083 36.6492C88.6123 37.1701 88.7643 37.8025 88.7643 38.5465C88.7643 39.2905 88.6123 39.8919 88.3083 40.419ZM94.7038 33.7662C93.9256 32.4021 92.8374 31.3419 91.4331 30.5917C90.0349 29.8415 88.3995 29.4694 86.5393 29.4694H75.712V55.0886H82.5208V47.4872H86.3022C88.2111 47.4872 89.889 47.1275 91.3237 46.3959C92.7645 45.6705 93.8831 44.6351 94.6795 43.302C95.482 41.969 95.8771 40.3818 95.8771 38.5465C95.8771 36.7112 95.488 35.1302 94.7038 33.7662Z" fill="#FCFCFC"/>
<path d="M99.5247 55.0576H122V49.4526H99.5247V55.0576Z" fill="#FCFCFC"/>
<path d="M99.5247 35.0744H122V29.4694H99.5247V35.0744Z" fill="#FCFCFC"/>
<path d="M99.5247 45.0629H120.839V39.4579H99.5247V45.0629Z" fill="#FCFCFC"/>
</svg>
