<svg width="217" height="99" viewBox="0 0 217 99" fill="none" xmlns="http://www.w3.org/2000/svg">
<path d="M63.5926 16.5402C64.1766 18.0967 64.4793 20.0039 64.4793 22.2509C64.4793 24.4979 64.1766 26.438 63.5926 28.0054C62.9979 29.5729 62.122 30.7566 60.9758 31.5678C59.8404 32.3679 58.4347 32.7735 56.7587 32.7735C55.0826 32.7735 53.6553 32.3679 52.5091 31.5678C51.3629 30.7566 50.4978 29.5729 49.9139 28.0054C49.33 26.438 49.038 24.5198 49.038 22.2509C49.038 19.982 49.33 18.0967 49.9139 16.5402C50.4978 14.9837 51.3629 13.7999 52.5091 12.9888C53.6553 12.1887 55.0718 11.7831 56.7587 11.7831C58.4455 11.7831 59.8404 12.1887 60.9758 12.9888C62.122 13.7999 62.9979 14.9837 63.5926 16.5402Z" fill="url(#paint0_linear_8_1148)"/>
<path d="M57.548 40.5558C57.1155 40.9942 56.4018 40.9942 55.9693 40.5558L38.733 23.0839C38.2897 22.6345 38.2897 21.9221 38.733 21.4727L55.9693 4.00078C56.4018 3.56233 57.1155 3.56233 57.548 4.00078L74.7843 21.4727C75.2277 21.9221 75.2277 22.6345 74.7843 23.0839L57.548 40.5558ZM56.7587 0C44.6262 0 34.7862 9.97454 34.7862 22.2838C34.7862 34.593 44.6262 44.5566 56.7587 44.5566C68.8911 44.5566 78.742 34.582 78.742 22.2838C78.742 9.9855 68.9019 0 56.7587 0Z" fill="url(#paint1_linear_8_1148)"/>
<path d="M21.0534 19.1928C20.5451 20.0696 19.8207 20.7492 18.8583 21.2315C17.8959 21.7248 16.7497 21.9659 15.3872 21.9659H11.3863V10.2486H15.3872C16.7497 10.2486 17.8959 10.4787 18.8583 10.9391C19.8207 11.3995 20.5451 12.0571 21.0534 12.9231C21.5616 13.789 21.8211 14.8412 21.8211 16.0798C21.8211 17.3184 21.5616 18.3159 21.0534 19.1928ZM31.7477 8.13308C30.4501 5.87511 28.6226 4.11038 26.287 2.87179C23.9513 1.62223 21.2156 0.997454 18.1014 0.997454H0V43.5591H11.3863V30.932H17.7013C20.902 30.932 23.6918 30.3292 26.1031 29.1235C28.5037 27.9068 30.3744 26.1969 31.7044 23.9827C33.0452 21.7576 33.7157 19.127 33.7157 16.0798C33.7157 13.0327 33.0561 10.402 31.7477 8.13308Z" fill="url(#paint2_linear_8_1148)"/>
<path d="M99.9143 43.5591L107.008 19.7956H107.354L114.447 43.5591H125.39L137.782 0.997454H125.044L119.302 27.282H118.956L112.198 0.997454H102.163L95.4052 27.1614H95.0592L89.3173 0.997454H76.5793L88.9713 43.5591H99.9143Z" fill="url(#paint3_linear_8_1148)"/>
<path d="M177.11 34.2203H140.042V43.5372H177.11V34.2203Z" fill="url(#paint4_linear_8_1148)"/>
<path d="M177.11 1.03034H140.042V10.3362H177.11V1.03034Z" fill="url(#paint5_linear_8_1148)"/>
<path d="M175.207 17.6253H140.042V26.9312H175.207V17.6253Z" fill="url(#paint6_linear_8_1148)"/>
<path d="M202.943 18.3926C202.435 19.138 201.699 19.675 200.748 20.0258C199.785 20.3656 198.628 20.541 197.277 20.541H193.276V10.2486H197.277C198.628 10.2486 199.785 10.4349 200.748 10.7966C201.699 11.1583 202.435 11.7173 202.943 12.4846C203.451 13.2409 203.7 14.2384 203.7 15.455C203.7 16.6717 203.451 17.6473 202.943 18.3926ZM208.436 27.6876C210.631 26.6243 212.35 25.1227 213.594 23.1607C214.935 21.0671 215.594 18.5022 215.594 15.455C215.594 12.4079 214.946 9.85396 213.637 7.69464C212.329 5.53532 210.512 3.8802 208.166 2.7293C205.83 1.57839 203.105 0.997454 199.98 0.997454H181.889V43.5591H193.276V29.5071H197.223L204.608 43.5591H217L208.436 27.6876Z" fill="url(#paint7_linear_8_1148)"/>
<path d="M35.7486 75.3023C34.5699 74.0856 33.0452 73.0224 31.1962 72.1016C29.3471 71.1919 27.1304 70.4575 24.5569 69.9094L20.729 69.0764C19.2584 68.7585 18.0581 68.3968 17.1282 67.9803C16.1982 67.5747 15.517 67.0815 15.0953 66.5225C14.6627 65.9525 14.4465 65.3058 14.4465 64.5605C14.4465 63.8589 14.6411 63.2342 15.0412 62.6861C15.4413 62.1381 16.0577 61.6996 16.9011 61.3927C17.7337 61.0858 18.8042 60.9324 20.1018 60.9324C22.1455 60.9324 23.681 61.3598 24.6974 62.2258C25.7139 63.0807 26.2762 64.2864 26.3735 65.8319H38.56C38.5384 62.7409 37.7814 60.0226 36.2784 57.6989C34.7862 55.3751 32.6668 53.5775 29.9094 52.2951C27.152 51.0126 23.8864 50.3659 20.1018 50.3659C16.3172 50.3659 13.1273 51.0017 10.2834 52.2622C7.45032 53.5227 5.22279 55.2874 3.61162 57.5454C2.00045 59.8034 1.20027 62.445 1.20027 65.4483C1.20027 69.1641 2.38972 72.1016 4.75782 74.25C7.13674 76.4093 10.3915 77.9329 14.5114 78.8208L19.2151 79.8401C20.9561 80.2018 22.3401 80.6074 23.3674 81.0458C24.3838 81.4952 25.13 81.9885 25.5733 82.5256C26.0275 83.0736 26.2545 83.6984 26.2545 84.4218C26.2545 85.211 26.0166 85.9016 25.5409 86.5044C25.0759 87.1073 24.3838 87.5786 23.4539 87.9184C22.5348 88.2582 21.3994 88.4336 20.0369 88.4336C18.4041 88.4336 17.0092 88.1815 15.8414 87.6663C14.6844 87.1621 13.7869 86.4058 13.1489 85.4083C12.5001 84.4109 12.1433 83.1942 12.0568 81.7473H0C0.0216265 85.7152 0.875872 88.9706 2.55192 91.5136C4.21716 94.0675 6.57445 95.9419 9.59134 97.1695C12.619 98.3862 16.1658 99 20.2207 99C24.2757 99 27.5737 98.43 30.396 97.312C33.2183 96.183 35.3917 94.5389 36.9056 92.3576C38.4302 90.1873 39.1872 87.5348 39.1872 84.4218C39.1872 82.6133 38.906 80.9472 38.3545 79.4236C37.8031 77.9 36.9272 76.5189 35.7486 75.3023Z" fill="url(#paint8_linear_8_1148)"/>
<path d="M70.8375 74.8309H54.769V52.0978H42.6474V97.3887H54.769V84.7397H70.8375V97.3887H82.9591V52.0978H70.8375V74.8309Z" fill="url(#paint9_linear_8_1148)"/>
<path d="M100.531 52.0978L85.7814 97.3887H112.35L110.057 88.2143H101.59L108.63 64.5604H108.987L118.773 97.3887H131.846L117.086 52.0978H100.531Z" fill="url(#paint10_linear_8_1148)"/>
<path d="M157.073 71.4549C156.532 72.3976 155.754 73.121 154.727 73.6362C153.71 74.1514 152.477 74.4144 151.039 74.4144H146.779V61.9408H151.039C152.477 61.9408 153.71 62.1819 154.727 62.6752C155.754 63.1574 156.532 63.8699 157.073 64.7906C157.614 65.7114 157.884 66.8294 157.884 68.1447C157.884 69.46 157.614 70.5233 157.073 71.4549ZM168.449 59.6938C167.064 57.2823 165.129 55.408 162.631 54.0817C160.144 52.7554 157.235 52.0978 153.926 52.0978H134.668V97.3887H146.779V83.9505H153.505C156.9 83.9505 159.885 83.3148 162.436 82.0214C164.999 80.7389 166.989 78.9084 168.405 76.5518C169.833 74.1952 170.536 71.3892 170.536 68.1447C170.536 64.9002 169.843 62.1052 168.449 59.6938Z" fill="url(#paint11_linear_8_1148)"/>
<path d="M177.023 97.3339H217V87.4252H177.023V97.3339Z" fill="url(#paint12_linear_8_1148)"/>
<path d="M177.023 62.0065H217V52.0978H177.023V62.0065Z" fill="url(#paint13_linear_8_1148)"/>
<path d="M177.023 79.6647H214.935V69.756H177.023V79.6647Z" fill="url(#paint14_linear_8_1148)"/>
<defs>
<linearGradient id="paint0_linear_8_1148" x1="158.337" y1="-32.3053" x2="30.0103" y2="144.926" gradientUnits="userSpaceOnUse">
<stop stop-color="#DFFF31"/>
<stop offset="1" stop-color="#357E17"/>
</linearGradient>
<linearGradient id="paint1_linear_8_1148" x1="158.337" y1="-32.3053" x2="30.0103" y2="144.926" gradientUnits="userSpaceOnUse">
<stop stop-color="#DFFF31"/>
<stop offset="1" stop-color="#357E17"/>
</linearGradient>
<linearGradient id="paint2_linear_8_1148" x1="158.337" y1="-32.3053" x2="30.0103" y2="144.926" gradientUnits="userSpaceOnUse">
<stop stop-color="#DFFF31"/>
<stop offset="1" stop-color="#357E17"/>
</linearGradient>
<linearGradient id="paint3_linear_8_1148" x1="158.337" y1="-32.3053" x2="30.0103" y2="144.926" gradientUnits="userSpaceOnUse">
<stop stop-color="#DFFF31"/>
<stop offset="1" stop-color="#357E17"/>
</linearGradient>
<linearGradient id="paint4_linear_8_1148" x1="158.337" y1="-32.3053" x2="30.0103" y2="144.926" gradientUnits="userSpaceOnUse">
<stop stop-color="#DFFF31"/>
<stop offset="1" stop-color="#357E17"/>
</linearGradient>
<linearGradient id="paint5_linear_8_1148" x1="158.337" y1="-32.3053" x2="30.0103" y2="144.926" gradientUnits="userSpaceOnUse">
<stop stop-color="#DFFF31"/>
<stop offset="1" stop-color="#357E17"/>
</linearGradient>
<linearGradient id="paint6_linear_8_1148" x1="158.337" y1="-32.3053" x2="30.0103" y2="144.926" gradientUnits="userSpaceOnUse">
<stop stop-color="#DFFF31"/>
<stop offset="1" stop-color="#357E17"/>
</linearGradient>
<linearGradient id="paint7_linear_8_1148" x1="158.337" y1="-32.3053" x2="30.0103" y2="144.926" gradientUnits="userSpaceOnUse">
<stop stop-color="#DFFF31"/>
<stop offset="1" stop-color="#357E17"/>
</linearGradient>
<linearGradient id="paint8_linear_8_1148" x1="158.337" y1="-32.3053" x2="30.0103" y2="144.926" gradientUnits="userSpaceOnUse">
<stop stop-color="#DFFF31"/>
<stop offset="1" stop-color="#357E17"/>
</linearGradient>
<linearGradient id="paint9_linear_8_1148" x1="158.337" y1="-32.3053" x2="30.0103" y2="144.926" gradientUnits="userSpaceOnUse">
<stop stop-color="#DFFF31"/>
<stop offset="1" stop-color="#357E17"/>
</linearGradient>
<linearGradient id="paint10_linear_8_1148" x1="158.337" y1="-32.3053" x2="30.0103" y2="144.926" gradientUnits="userSpaceOnUse">
<stop stop-color="#DFFF31"/>
<stop offset="1" stop-color="#357E17"/>
</linearGradient>
<linearGradient id="paint11_linear_8_1148" x1="158.337" y1="-32.3053" x2="30.0103" y2="144.926" gradientUnits="userSpaceOnUse">
<stop stop-color="#DFFF31"/>
<stop offset="1" stop-color="#357E17"/>
</linearGradient>
<linearGradient id="paint12_linear_8_1148" x1="158.337" y1="-32.3053" x2="30.0103" y2="144.926" gradientUnits="userSpaceOnUse">
<stop stop-color="#DFFF31"/>
<stop offset="1" stop-color="#357E17"/>
</linearGradient>
<linearGradient id="paint13_linear_8_1148" x1="158.337" y1="-32.3053" x2="30.0103" y2="144.926" gradientUnits="userSpaceOnUse">
<stop stop-color="#DFFF31"/>
<stop offset="1" stop-color="#357E17"/>
</linearGradient>
<linearGradient id="paint14_linear_8_1148" x1="158.337" y1="-32.3053" x2="30.0103" y2="144.926" gradientUnits="userSpaceOnUse">
<stop stop-color="#DFFF31"/>
<stop offset="1" stop-color="#357E17"/>
</linearGradient>
</defs>
</svg>
